<svg width="154" height="34" viewBox="0 0 154 34" fill="none" xmlns="http://www.w3.org/2000/svg">
<g id="logo 3">
<g id="Group 1171274928">
<g id="Layer 2">
<g id="Layer 1">
<path id="Vector" d="M3.55885 0L3.22888 1.94644H13.1339L13.4815 0H3.55885ZM3.04033 2.95812L2.63965 5.18854H9.75758L5.93346 26.9662H8.69107L12.9571 2.95812H3.04033ZM13.947 2.95812L9.67509 26.9662H12.4739L16.2981 5.18854H23.4514L23.852 2.95812H13.947ZM14.4714 0L14.1238 1.94644H24.0052L24.3352 0H14.4714Z" fill="#F37421"/>
<path id="Vector_2" d="M45.7712 0.443848L41.2812 26.9663H43.6382L48.2637 0.443848H45.7712ZM56.1535 0.443848H49.1888L44.581 26.9663H47.4741L49.1888 16.9561H50.6736L54.2562 26.9663H61.2209L57.1316 16.465C58.9075 15.9973 60.5097 15.0213 61.7432 13.6557C62.9766 12.2902 63.788 10.5941 64.0787 8.77391C64.88 4.18291 62.3817 0.443848 56.1535 0.443848ZM57.7503 9.05789C57.385 11.1345 56.0828 12.3828 53.7671 12.3828H49.9312L51.0507 5.73296H54.8925C57.2023 5.73296 58.1097 7.0582 57.7503 9.05789Z" fill="#F37421"/>
<path id="Vector_3" d="M17.4823 23.8306C16.9831 23.3133 16.6293 22.6723 16.457 21.9729L16.84 21.2571C16.9107 21.6535 17.3468 23.6236 18.6077 24.2684C19.2002 24.5324 19.8346 24.6887 20.4815 24.7299C19.4037 24.8292 18.3293 24.5071 17.4823 23.8306Z" fill="#1A3C66"/>
<path id="Vector_4" d="M24.7418 19.8135C24.7418 19.8135 19.48 19.5591 17.8184 19.4171L18.549 18.0268C19.8005 17.9354 21.0569 17.9354 22.3083 18.0268C22.6794 18.0674 23.0341 18.2017 23.3395 18.4172C23.9287 18.7959 24.7477 19.2928 24.7477 19.2928C24.6913 19.4614 24.6893 19.6436 24.7418 19.8135Z" fill="#1A3C66"/>
<path id="Vector_5" d="M27.1346 24.3571C27.2465 23.4147 27.2996 22.4663 27.2937 21.5173C27.3112 21.2249 27.2612 20.9324 27.1478 20.6626C27.0344 20.3927 26.8605 20.1527 26.6396 19.9613C27.2701 19.8371 27.388 20.7068 27.388 21.7066C27.3526 22.387 27.223 23.6057 27.1346 24.3571Z" fill="#1A3C66"/>
<path id="Vector_6" d="M28.1062 21.4641C28.1406 21.4641 28.1735 21.4778 28.1979 21.5022C28.2222 21.5266 28.2358 21.5597 28.2358 21.5943C28.2358 21.6288 28.2222 21.6619 28.1979 21.6863C28.1735 21.7107 28.1406 21.7244 28.1062 21.7244C28.0718 21.7244 28.0388 21.7107 28.0145 21.6863C27.9902 21.6619 27.9766 21.6288 27.9766 21.5943C27.9766 21.5597 27.9902 21.5266 28.0145 21.5022C28.0388 21.4778 28.0718 21.4641 28.1062 21.4641Z" fill="#1A3C66"/>
<path id="Vector_7" d="M29.2023 19.8076L26.5213 19.8608L26.0676 19.4644C25.9713 19.2563 25.8096 19.0856 25.6074 18.9787C25.4051 18.8718 25.1734 18.8346 24.9481 18.8728C24.9481 18.8728 23.6812 18.08 23.4691 17.9203C23.257 17.7606 23.3336 17.6718 23.5987 17.6008C23.8188 17.5323 24.0335 17.4473 24.241 17.3464L29.2023 19.8076Z" fill="#1A3C66"/>
<path id="Vector_8" d="M34.2578 22.677L36.1669 23.1266C36.2785 23.1456 36.3823 23.1964 36.4659 23.273C36.5495 23.3495 36.6093 23.4487 36.6383 23.5585C36.7326 23.949 36.8622 24.7418 36.8622 24.7418C36.3381 24.7176 35.8163 24.6563 35.3008 24.5584C35.1427 24.4899 35.0028 24.3852 34.8923 24.2527C34.7817 24.1201 34.7037 23.9635 34.6644 23.7952C34.5348 23.4224 34.2578 22.677 34.2578 22.677Z" fill="#1A3C66"/>
<path id="Vector_9" d="M35.3658 21.1327C35.3658 21.1327 35.2126 21.0439 35.242 20.9315C35.3576 20.8911 35.4792 20.8711 35.6015 20.8724C36.4922 21.1848 37.3145 21.6669 38.0232 22.2923L37.6343 22.2509C36.9094 21.8173 36.1507 21.4434 35.3658 21.1327Z" fill="#1A3C66"/>
<path id="Vector_10" d="M33.1499 23.517C33.1499 23.517 32.4311 24.1087 31.942 23.4756C31.9005 23.3573 31.8975 23.2287 31.9335 23.1085C31.9695 22.9884 32.0427 22.8828 32.1424 22.8071C32.365 22.6656 32.6285 22.6031 32.8907 22.6296C32.8286 22.5361 32.7576 22.4489 32.6786 22.3693C32.6786 22.3693 32.3073 22.6119 32.0893 22.458C32.0396 22.4248 31.997 22.3818 31.964 22.3317C31.9311 22.2817 31.9084 22.2255 31.8974 22.1665C31.8865 22.1075 31.8874 22.0469 31.9001 21.9882C31.9128 21.9296 31.9371 21.8741 31.9715 21.825C31.8685 21.778 31.7594 21.7461 31.6474 21.7303C31.6474 21.7303 31.9833 22.6474 31.1583 22.8781C31.0372 22.878 30.9191 22.8405 30.82 22.7707C30.7209 22.7008 30.6456 22.602 30.6045 22.4876C30.5394 22.2326 30.5559 21.9636 30.6516 21.7185C30.5438 21.7499 30.4392 21.7915 30.3393 21.8427C30.3393 21.8427 30.463 22.2687 30.2509 22.4344C30.1563 22.5088 30.0362 22.5425 29.9169 22.5281C29.7976 22.5136 29.6889 22.4523 29.6145 22.3575C29.5384 22.4425 29.4748 22.5381 29.426 22.6414C29.426 22.6414 30.3982 22.5882 30.3688 23.446C30.3258 23.5514 30.2534 23.642 30.1604 23.707C30.0674 23.7721 29.9576 23.8088 29.8443 23.8129C29.5817 23.7964 29.3314 23.6946 29.1314 23.523C29.1216 23.6352 29.1216 23.748 29.1314 23.8602C29.1314 23.8602 29.5733 23.8602 29.6676 24.1264C29.7619 24.3926 29.6028 24.6885 29.3965 24.718C29.45 24.8193 29.522 24.9096 29.6087 24.9843C29.6087 24.9843 29.8679 24.0318 30.6811 24.3453C30.7869 24.4151 30.8675 24.5172 30.911 24.6365C30.9545 24.7558 30.9586 24.8861 30.9226 25.0079C30.8298 25.2543 30.6577 25.4625 30.4336 25.5996C30.5412 25.6358 30.6516 25.6635 30.7636 25.6824C30.7636 25.6824 30.9109 25.2623 31.176 25.2505C31.4412 25.2387 31.6887 25.4812 31.6533 25.6824C31.7641 25.6605 31.8699 25.6183 31.9656 25.5581C31.9656 25.5581 31.1524 25.0375 31.6592 24.3749C31.7572 24.3075 31.8733 24.2714 31.9921 24.2714C32.1109 24.2714 32.227 24.3075 32.325 24.3749C32.5306 24.541 32.6773 24.7692 32.7434 25.0257C32.8101 24.9341 32.8693 24.8371 32.9201 24.7358C32.9201 24.7358 32.5666 24.4696 32.6373 24.2092C32.6524 24.1514 32.6787 24.097 32.7147 24.0493C32.7507 24.0017 32.7957 23.9616 32.8471 23.9313C32.8986 23.9011 32.9554 23.8814 33.0145 23.8732C33.0735 23.8651 33.1335 23.8687 33.1912 23.8838C33.202 23.76 33.188 23.6353 33.1499 23.517ZM30.9226 24.1619H30.8814H30.846V24.1264C30.8555 24.1111 30.8684 24.0982 30.8838 24.089C30.8992 24.0797 30.9165 24.0743 30.9344 24.0732C30.9641 24.0732 30.9926 24.085 31.0136 24.1061C31.0346 24.1272 31.0464 24.1558 31.0464 24.1856C31.0464 24.2154 31.0346 24.244 31.0136 24.2651C30.9926 24.2861 30.9641 24.298 30.9344 24.298L30.9226 24.1619ZM31.2526 23.3159C31.2432 23.3267 31.2313 23.335 31.2179 23.3401C31.2046 23.3453 31.1902 23.3471 31.176 23.3455C31.1479 23.3455 31.1209 23.3343 31.101 23.3143C31.0811 23.2943 31.07 23.2672 31.07 23.239C31.0692 23.2245 31.0713 23.21 31.0763 23.1964C31.0812 23.1828 31.0889 23.1703 31.0989 23.1598C31.1088 23.1493 31.1208 23.1409 31.134 23.1352C31.1473 23.1295 31.1616 23.1265 31.176 23.1266C31.1952 23.1206 31.2157 23.1206 31.2349 23.1266C31.2376 23.1482 31.2376 23.17 31.2349 23.1917C31.2583 23.2285 31.2667 23.273 31.2585 23.3159H31.2526ZM31.6945 23.5999V23.6354H31.6592H31.6179C31.5883 23.6354 31.5598 23.6235 31.5388 23.6024C31.5178 23.5814 31.506 23.5528 31.506 23.523C31.506 23.4931 31.5178 23.4646 31.5388 23.4435C31.5598 23.4224 31.5883 23.4106 31.6179 23.4106C31.6324 23.4109 31.6467 23.4142 31.6599 23.4203C31.6731 23.4264 31.6849 23.4352 31.6945 23.446C31.6945 23.446 31.6945 23.446 31.6945 23.4815C31.6945 23.517 31.6945 23.4815 31.6945 23.523C31.6945 23.5644 31.7004 23.588 31.7004 23.5999H31.6945Z" fill="#1A3C66"/>
<path id="Vector_11" d="M35.5248 0.14209H28.0592L19.1029 16.9975C20.8058 16.9028 23.4691 16.9087 24.294 17.3169L29.2613 19.7722C29.2613 19.7722 35.9962 19.5059 38.8658 23.0202C38.8772 23.04 38.8831 23.0624 38.8831 23.0853C38.8831 23.1081 38.8772 23.1306 38.8658 23.1503C38.7772 23.7099 38.6533 24.2632 38.4946 24.8069C38.4471 24.8924 38.378 24.9638 38.2942 25.014L38.6713 25.0909C38.6713 25.0909 38.7538 25.0909 38.7185 25.1796C38.7185 25.1796 38.7185 25.2506 37.87 25.2979C37.0215 25.3453 33.981 25.4044 33.981 25.4044C34.2515 24.311 34.1153 23.1561 33.598 22.1564C33.1709 21.5081 32.5068 21.0546 31.7492 20.894C30.9917 20.7335 30.2017 20.8788 29.55 21.2986C28.3715 22.1032 28.0475 23.4521 28.1948 25.3157L14.7131 25.2624L13.7998 26.9781H40.4272L35.5248 0.14209ZM26.6392 9.2531L29.1847 3.85157L29.3025 3.60901H32.8379L33.9162 9.2531H26.6392ZM31.8186 26.3688C31.5989 26.424 31.3733 26.4518 31.1468 26.4516C30.9038 26.4509 30.6619 26.4171 30.428 26.351C29.7858 26.1807 29.2274 25.7816 28.857 25.2281C28.4865 24.6746 28.3294 24.0047 28.4149 23.3434C28.5004 22.6822 28.8228 22.0747 29.3217 21.6346C29.8206 21.1945 30.4621 20.9518 31.1262 20.9518C31.7903 20.9518 32.4318 21.1945 32.9307 21.6346C33.4296 22.0747 33.752 22.6822 33.8375 23.3434C33.923 24.0047 33.7659 24.6746 33.3954 25.2281C33.025 25.7816 32.4666 26.1807 31.8244 26.351L31.8186 26.3688Z" fill="#1A3C66"/>
</g>
</g>
</g>
<g id="Group 1171274927">
<path id="Vector_12" d="M73.8429 13.6611H68.4212L67.335 19.9922H77.3777C77.7473 19.4142 77.9948 18.7662 78.1049 18.0882C78.5559 15.5651 77.212 13.6611 73.8429 13.6611ZM74.699 18.0882C74.6389 18.617 74.3728 19.1004 73.9588 19.4329C73.5449 19.7654 73.0168 19.9199 72.4898 19.8628H70.6948L71.3023 16.3322H73.1434C74.4505 16.3322 74.9015 17.0346 74.699 18.0882Z" fill="#F37421"/>
<path id="Vector_13" d="M76.4477 21.0828C75.2857 22.0533 73.8066 22.5571 72.2963 22.4969H70.2251L69.3046 27.4415H66L67.1138 21.0828H76.4477Z" fill="#1A3C66"/>
<path id="Vector_14" d="M88.5704 13.6611H84.7043L81.3076 19.9922H89.7395L88.5704 13.6611ZM85.993 17.3581L84.6306 20.0014H86.4072L85.993 17.3581Z" fill="#F37421"/>
<path id="Vector_15" d="M91.1201 27.4415H87.5853L87.1895 25.0108H82.0623L80.8104 27.4415H77.3125L80.7184 21.0828H84.0782L83.3694 22.4599H86.7937L86.582 21.0828H89.9418L91.1201 27.4415Z" fill="#1A3C66"/>
<path id="Vector_16" d="M100.665 13.6611H95.0503L93.9365 19.9922H104.154C104.58 19.3999 104.864 18.7166 104.983 17.9958C105.378 15.602 104.025 13.6611 100.665 13.6611ZM101.521 18.1345C101.461 18.6492 101.201 19.1194 100.798 19.443C100.395 19.7666 99.8808 19.9174 99.3675 19.8628H97.2964L97.9039 16.4061H99.975C101.236 16.4061 101.724 17.0993 101.521 18.1345Z" fill="#F37421"/>
<path id="Vector_17" d="M103.408 27.4415H99.6252L97.7105 22.2381H96.9097L95.9892 27.4415H92.6201L93.7431 21.0828H103.049C102.499 21.504 101.874 21.8175 101.208 22.007L103.408 27.4415Z" fill="#1A3C66"/>
<path id="Vector_18" d="M115.744 13.6611L110.092 19.7057L111.15 13.6611H107.836L106.723 19.9922H113.58L119.683 13.6611H115.744Z" fill="#F37421"/>
<path id="Vector_19" d="M117.438 27.4415H113.341L109.807 21.36L108.73 27.4415H105.379L106.502 21.0828H113.562L117.438 27.4415Z" fill="#1A3C66"/>
<path id="Vector_20" d="M121.442 13.6611L120.328 19.9922H123.67L124.783 13.6611H121.442Z" fill="#F37421"/>
<path id="Vector_21" d="M123.476 21.0828L122.362 27.4415H119.021L120.134 21.0828H123.476Z" fill="#1A3C66"/>
<path id="Vector_22" d="M136.152 13.6611L135.038 19.9922H138.379L139.493 13.6611H136.152ZM130.555 13.6611H127.213L126.1 19.9922H129.45L129.634 18.9385L130.141 19.9922H133.611L130.555 13.6611Z" fill="#F37421"/>
<path id="Vector_23" d="M129.257 21.0828L128.134 27.4415H124.783L125.906 21.0828H129.257Z" fill="#1A3C66"/>
<path id="Vector_24" d="M138.195 21.0828L137.072 27.4415H133.731L130.675 21.0828H134.117L134.651 22.2011L134.845 21.0828H138.195Z" fill="#1A3C66"/>
<path id="Vector_25" d="M146.636 19.6687L146.581 19.9922H153.862L153.917 19.6687H146.636ZM148.339 13.467C146.461 13.466 144.638 14.1056 143.17 15.2811C141.701 16.4566 140.674 18.0982 140.257 19.9367H143.736C143.933 18.9794 144.453 18.1194 145.207 17.5015C145.962 16.8837 146.905 16.5458 147.879 16.5448C148.382 16.4868 148.892 16.593 149.331 16.8476C149.77 17.1022 150.116 17.4918 150.318 17.9589H154C153.761 15.1861 151.643 13.467 148.339 13.467Z" fill="#F37421"/>
<path id="Vector_26" d="M153.668 21.0829L153.364 22.7928C152.685 24.2012 151.629 25.3918 150.313 26.2309C148.998 27.07 147.476 27.5245 145.917 27.5434C141.996 27.5434 139.658 24.9185 140.081 21.0737H143.497C143.294 23.3011 144.472 24.5581 146.7 24.5581C147.496 24.5623 148.275 24.3326 148.943 23.8974C149.61 23.4622 150.136 22.8405 150.456 22.1088H146.23L146.396 21.0645L153.668 21.0829Z" fill="#1A3C66"/>
</g>
</g>
</svg>
