<svg width="155" height="38" viewBox="0 0 155 38" fill="none" xmlns="http://www.w3.org/2000/svg">
<g id="logo 2">
<g id="Group 1171274928">
<g id="Layer 2">
<g id="Layer 1">
<path id="Vector" d="M3.55885 0L3.22888 1.94644H13.1339L13.4815 0H3.55885ZM3.04033 2.95812L2.63965 5.18854H9.75758L5.93346 26.9662H8.69107L12.9571 2.95812H3.04033ZM13.947 2.95812L9.67509 26.9662H12.4739L16.2981 5.18854H23.4514L23.852 2.95812H13.947ZM14.4714 0L14.1238 1.94644H24.0052L24.3352 0H14.4714Z" fill="#1A3C66"/>
<path id="Vector_2" d="M45.7712 0.443726L41.2812 26.9662H43.6382L48.2637 0.443726H45.7712ZM56.1535 0.443726H49.1888L44.581 26.9662H47.4741L49.1888 16.9559H50.6736L54.2562 26.9662H61.2209L57.1316 16.4649C58.9075 15.9972 60.5097 15.0211 61.7432 13.6556C62.9766 12.2901 63.788 10.594 64.0787 8.77379C64.88 4.18279 62.3817 0.443726 56.1535 0.443726ZM57.7503 9.05777C57.385 11.1344 56.0828 12.3827 53.7671 12.3827H49.9312L51.0507 5.73284H54.8925C57.2023 5.73284 58.1097 7.05808 57.7503 9.05777Z" fill="#1A3C66"/>
<path id="Vector_3" d="M17.4823 23.8306C16.9831 23.3132 16.6293 22.6722 16.457 21.9729L16.84 21.257C16.9107 21.6534 17.3468 23.6235 18.6077 24.2684C19.2002 24.5324 19.8346 24.6886 20.4815 24.7299C19.4037 24.8292 18.3293 24.507 17.4823 23.8306Z" fill="#F37421"/>
<path id="Vector_4" d="M24.7418 19.8135C24.7418 19.8135 19.48 19.5591 17.8184 19.4171L18.549 18.0268C19.8005 17.9354 21.0569 17.9354 22.3083 18.0268C22.6794 18.0674 23.0341 18.2017 23.3395 18.4172C23.9287 18.7959 24.7477 19.2928 24.7477 19.2928C24.6913 19.4614 24.6893 19.6436 24.7418 19.8135Z" fill="#F37421"/>
<path id="Vector_5" d="M27.1346 24.3572C27.2465 23.4148 27.2996 22.4664 27.2937 21.5174C27.3112 21.225 27.2612 20.9325 27.1478 20.6626C27.0344 20.3928 26.8605 20.1528 26.6396 19.9614C27.2701 19.8372 27.388 20.7068 27.388 21.7067C27.3526 22.387 27.223 23.6058 27.1346 24.3572Z" fill="#F37421"/>
<path id="Vector_6" d="M28.1062 21.4641C28.1406 21.4641 28.1735 21.4778 28.1979 21.5022C28.2222 21.5266 28.2358 21.5597 28.2358 21.5943C28.2358 21.6288 28.2222 21.6619 28.1979 21.6863C28.1735 21.7107 28.1406 21.7244 28.1062 21.7244C28.0718 21.7244 28.0388 21.7107 28.0145 21.6863C27.9902 21.6619 27.9766 21.6288 27.9766 21.5943C27.9766 21.5597 27.9902 21.5266 28.0145 21.5022C28.0388 21.4778 28.0718 21.4641 28.1062 21.4641Z" fill="#F37421"/>
<path id="Vector_7" d="M29.2023 19.8076L26.5213 19.8608L26.0676 19.4644C25.9713 19.2563 25.8096 19.0856 25.6074 18.9787C25.4051 18.8718 25.1734 18.8346 24.9481 18.8728C24.9481 18.8728 23.6812 18.08 23.4691 17.9203C23.257 17.7606 23.3336 17.6718 23.5987 17.6008C23.8188 17.5323 24.0335 17.4473 24.241 17.3464L29.2023 19.8076Z" fill="#F37421"/>
<path id="Vector_8" d="M34.2578 22.6769L36.1669 23.1266C36.2785 23.1455 36.3823 23.1963 36.4659 23.2729C36.5495 23.3495 36.6093 23.4486 36.6383 23.5585C36.7326 23.9489 36.8622 24.7417 36.8622 24.7417C36.3381 24.7175 35.8163 24.6562 35.3008 24.5583C35.1427 24.4898 35.0028 24.3852 34.8923 24.2526C34.7817 24.1201 34.7037 23.9634 34.6644 23.7951C34.5348 23.4224 34.2578 22.6769 34.2578 22.6769Z" fill="#F37421"/>
<path id="Vector_9" d="M35.3658 21.1328C35.3658 21.1328 35.2126 21.0441 35.242 20.9317C35.3576 20.8913 35.4792 20.8713 35.6015 20.8725C36.4922 21.1849 37.3145 21.667 38.0232 22.2924L37.6343 22.251C36.9094 21.8175 36.1507 21.4435 35.3658 21.1328Z" fill="#F37421"/>
<path id="Vector_10" d="M33.1499 23.517C33.1499 23.517 32.4311 24.1087 31.942 23.4756C31.9005 23.3573 31.8975 23.2287 31.9335 23.1085C31.9695 22.9884 32.0427 22.8828 32.1424 22.8071C32.365 22.6656 32.6285 22.6031 32.8907 22.6296C32.8286 22.5361 32.7576 22.4489 32.6786 22.3693C32.6786 22.3693 32.3073 22.6119 32.0893 22.458C32.0396 22.4248 31.997 22.3818 31.964 22.3317C31.9311 22.2817 31.9084 22.2255 31.8974 22.1665C31.8865 22.1075 31.8874 22.0469 31.9001 21.9882C31.9128 21.9296 31.9371 21.8741 31.9715 21.825C31.8685 21.778 31.7594 21.7461 31.6474 21.7303C31.6474 21.7303 31.9833 22.6474 31.1583 22.8781C31.0372 22.878 30.9191 22.8405 30.82 22.7707C30.7209 22.7008 30.6456 22.602 30.6045 22.4876C30.5394 22.2326 30.5559 21.9636 30.6516 21.7185C30.5438 21.7499 30.4392 21.7915 30.3393 21.8427C30.3393 21.8427 30.463 22.2687 30.2509 22.4344C30.1563 22.5088 30.0362 22.5425 29.9169 22.5281C29.7976 22.5136 29.6889 22.4523 29.6145 22.3575C29.5384 22.4425 29.4748 22.5381 29.426 22.6414C29.426 22.6414 30.3982 22.5882 30.3688 23.446C30.3258 23.5514 30.2534 23.642 30.1604 23.707C30.0674 23.7721 29.9576 23.8088 29.8443 23.8129C29.5817 23.7964 29.3314 23.6946 29.1314 23.523C29.1216 23.6352 29.1216 23.748 29.1314 23.8602C29.1314 23.8602 29.5733 23.8602 29.6676 24.1264C29.7619 24.3926 29.6028 24.6885 29.3965 24.718C29.45 24.8193 29.522 24.9096 29.6087 24.9843C29.6087 24.9843 29.8679 24.0318 30.6811 24.3453C30.7869 24.4151 30.8675 24.5172 30.911 24.6365C30.9545 24.7558 30.9586 24.8861 30.9226 25.0079C30.8298 25.2543 30.6577 25.4625 30.4336 25.5996C30.5412 25.6358 30.6516 25.6635 30.7636 25.6824C30.7636 25.6824 30.9109 25.2623 31.176 25.2505C31.4412 25.2387 31.6887 25.4812 31.6533 25.6824C31.7641 25.6605 31.8699 25.6183 31.9656 25.5581C31.9656 25.5581 31.1524 25.0375 31.6592 24.3749C31.7572 24.3075 31.8733 24.2714 31.9921 24.2714C32.1109 24.2714 32.227 24.3075 32.325 24.3749C32.5306 24.541 32.6773 24.7692 32.7434 25.0257C32.8101 24.9341 32.8693 24.8371 32.9201 24.7358C32.9201 24.7358 32.5666 24.4696 32.6373 24.2092C32.6524 24.1514 32.6787 24.097 32.7147 24.0493C32.7507 24.0017 32.7957 23.9616 32.8471 23.9313C32.8986 23.9011 32.9554 23.8814 33.0145 23.8732C33.0735 23.8651 33.1335 23.8687 33.1912 23.8838C33.202 23.76 33.188 23.6353 33.1499 23.517ZM30.9226 24.1619H30.8814H30.846V24.1264C30.8555 24.1111 30.8684 24.0982 30.8838 24.089C30.8992 24.0797 30.9165 24.0743 30.9344 24.0732C30.9641 24.0732 30.9926 24.085 31.0136 24.1061C31.0346 24.1272 31.0464 24.1558 31.0464 24.1856C31.0464 24.2154 31.0346 24.244 31.0136 24.2651C30.9926 24.2861 30.9641 24.298 30.9344 24.298L30.9226 24.1619ZM31.2526 23.3159C31.2432 23.3267 31.2313 23.335 31.2179 23.3401C31.2046 23.3453 31.1902 23.3471 31.176 23.3455C31.1479 23.3455 31.1209 23.3343 31.101 23.3143C31.0811 23.2943 31.07 23.2672 31.07 23.239C31.0692 23.2245 31.0713 23.21 31.0763 23.1964C31.0812 23.1828 31.0889 23.1703 31.0989 23.1598C31.1088 23.1493 31.1208 23.1409 31.134 23.1352C31.1473 23.1295 31.1616 23.1265 31.176 23.1266C31.1952 23.1206 31.2157 23.1206 31.2349 23.1266C31.2376 23.1482 31.2376 23.17 31.2349 23.1917C31.2583 23.2285 31.2667 23.273 31.2585 23.3159H31.2526ZM31.6945 23.5999V23.6354H31.6592H31.6179C31.5883 23.6354 31.5598 23.6235 31.5388 23.6024C31.5178 23.5814 31.506 23.5528 31.506 23.523C31.506 23.4931 31.5178 23.4646 31.5388 23.4435C31.5598 23.4224 31.5883 23.4106 31.6179 23.4106C31.6324 23.4109 31.6467 23.4142 31.6599 23.4203C31.6731 23.4264 31.6849 23.4352 31.6945 23.446C31.6945 23.446 31.6945 23.446 31.6945 23.4815C31.6945 23.517 31.6945 23.4815 31.6945 23.523C31.6945 23.5644 31.7004 23.588 31.7004 23.5999H31.6945Z" fill="#F37421"/>
<path id="Vector_11" d="M35.5248 0.141968H28.0592L19.1029 16.9973C20.8058 16.9027 23.4691 16.9086 24.294 17.3168L29.2613 19.772C29.2613 19.772 35.9962 19.5058 38.8658 23.0201C38.8772 23.0398 38.8831 23.0623 38.8831 23.0851C38.8831 23.108 38.8772 23.1304 38.8658 23.1502C38.7772 23.7098 38.6533 24.2631 38.4946 24.8068C38.4471 24.8923 38.378 24.9637 38.2942 25.0138L38.6713 25.0907C38.6713 25.0907 38.7538 25.0907 38.7185 25.1795C38.7185 25.1795 38.7185 25.2505 37.87 25.2978C37.0215 25.3451 33.981 25.4043 33.981 25.4043C34.2515 24.3109 34.1153 23.156 33.598 22.1563C33.1709 21.5079 32.5068 21.0544 31.7492 20.8939C30.9917 20.7334 30.2017 20.8787 29.55 21.2984C28.3715 22.103 28.0475 23.4519 28.1948 25.3156L14.7131 25.2623L13.7998 26.978H40.4272L35.5248 0.141968ZM26.6392 9.25297L29.1847 3.85145L29.3025 3.60888H32.8379L33.9162 9.25297H26.6392ZM31.8186 26.3686C31.5989 26.4238 31.3733 26.4517 31.1468 26.4515C30.9038 26.4508 30.6619 26.417 30.428 26.3509C29.7858 26.1806 29.2274 25.7814 28.857 25.228C28.4865 24.6745 28.3294 24.0046 28.4149 23.3433C28.5004 22.682 28.8228 22.0746 29.3217 21.6345C29.8206 21.1944 30.4621 20.9517 31.1262 20.9517C31.7903 20.9517 32.4318 21.1944 32.9307 21.6345C33.4296 22.0746 33.752 22.682 33.8375 23.3433C33.923 24.0046 33.7659 24.6745 33.3954 25.228C33.025 25.7814 32.4666 26.1806 31.8244 26.3509L31.8186 26.3686Z" fill="#F37421"/>
</g>
</g>
</g>
<g id="Group 1171274927">
<path id="Vector_12" d="M73.6514 23.7645L68.2322 23.9295L67.3391 30.2906L77.3772 29.9851C77.729 29.3961 77.9567 28.7409 78.0461 28.0599C78.4202 25.5242 77.0189 23.662 73.6514 23.7645ZM74.6418 28.1635C74.5978 28.6939 74.3465 29.1852 73.9429 29.5301C73.5393 29.875 73.0161 30.0456 72.4876 30.0045L70.6935 30.0591L71.1933 26.5116L73.0335 26.4556C74.34 26.4158 74.8122 27.1042 74.6418 28.1635Z" fill="#1A3C66"/>
<path id="Vector_13" d="M76.481 31.1034C75.349 32.1089 73.886 32.6575 72.3745 32.6432L70.3043 32.7062L69.5346 37.6766L66.2316 37.7772L67.1514 31.3874L76.481 31.1034Z" fill="#F37421"/>
<path id="Vector_14" d="M88.3722 23.3164L84.5079 23.434L81.3054 29.8655L89.7334 29.6089L88.3722 23.3164ZM85.9085 27.09L84.6272 29.7736L86.4029 29.7195L85.9085 27.09Z" fill="#1A3C66"/>
<path id="Vector_15" d="M91.3394 37.0129L87.8063 37.1204L87.3367 34.7028L82.2119 34.8588L81.0345 37.3266L77.5382 37.433L80.749 30.9735L84.1073 30.8713L83.4408 32.2693L86.8634 32.1652L86.6099 30.7951L89.9682 30.6929L91.3394 37.0129Z" fill="#F37421"/>
<path id="Vector_16" d="M100.462 22.9484L94.8491 23.1192L93.9285 29.4813L104.141 29.1704C104.549 28.5654 104.812 27.8738 104.909 27.1497C105.231 24.745 103.82 22.8462 100.462 22.9484ZM101.453 27.3936C101.409 27.91 101.163 28.3879 100.77 28.7236C100.377 29.0593 99.8678 29.2257 99.353 29.1867L97.2828 29.2497L97.7849 25.7762L99.8551 25.7131C101.116 25.6748 101.624 26.3528 101.453 27.3936Z" fill="#1A3C66"/>
<path id="Vector_17" d="M103.622 36.639L99.8408 36.7541L97.7687 31.6113L96.9682 31.6356L96.2065 36.8647L92.839 36.9672L93.768 30.5772L103.07 30.2941C102.533 30.7318 101.918 31.0642 101.258 31.2739L103.622 36.639Z" fill="#F37421"/>
<path id="Vector_18" d="M115.533 22.4896L110.068 28.7033L110.942 22.6294L107.629 22.7302L106.709 29.0922L113.563 28.8836L119.471 22.3698L115.533 22.4896Z" fill="#1A3C66"/>
<path id="Vector_19" d="M117.645 36.2121L113.551 36.3368L109.832 30.3656L108.941 36.4771L105.592 36.579L106.521 30.189L113.578 29.9742L117.645 36.2121Z" fill="#F37421"/>
<path id="Vector_20" d="M121.228 22.3163L120.307 28.6783L123.647 28.5766L124.568 22.2146L121.228 22.3163Z" fill="#1A3C66"/>
<path id="Vector_21" d="M123.487 29.6725L122.567 36.0623L119.227 36.1639L120.147 29.7742L123.487 29.6725Z" fill="#F37421"/>
<path id="Vector_22" d="M135.931 21.8687L135.01 28.2307L138.35 28.1291L139.271 21.7671L135.931 21.8687ZM130.337 22.039L126.997 22.1407L126.076 28.5027L129.426 28.4007L129.577 27.342L130.116 28.3797L133.584 28.2741L130.337 22.039Z" fill="#1A3C66"/>
<path id="Vector_23" d="M129.266 29.4967L128.337 35.8867L124.987 35.9886L125.916 29.5986L129.266 29.4967Z" fill="#F37421"/>
<path id="Vector_24" d="M138.2 29.2247L137.271 35.6147L133.931 35.7164L130.683 29.4536L134.124 29.3488L134.691 30.4504L134.851 29.3267L138.2 29.2247Z" fill="#F37421"/>
<path id="Vector_25" d="M146.594 27.5544L146.548 27.8795L153.826 27.6579L153.871 27.3329L146.594 27.5544ZM148.107 21.3038C146.23 21.3599 144.428 22.0547 142.996 23.2744C141.564 24.494 140.587 26.1661 140.226 28.0164L143.704 27.9106C143.871 26.9477 144.364 26.0723 145.099 25.4318C145.835 24.7913 146.768 24.4248 147.741 24.3941C148.243 24.3209 148.755 24.4115 149.201 24.6526C149.648 24.8937 150.006 25.2726 150.222 25.7334L153.902 25.6213C153.579 22.8572 151.41 21.2033 148.107 21.3038Z" fill="#1A3C66"/>
<path id="Vector_26" d="M153.665 28.7539L153.414 30.4722C152.778 31.9006 151.758 33.1228 150.469 34.0016C149.18 34.8803 147.672 35.3809 146.115 35.4472C142.195 35.5665 139.778 33.014 140.085 29.1581L143.498 29.0542C143.364 31.2867 144.579 32.5072 146.806 32.4395C147.602 32.4195 148.374 32.1662 149.028 31.7109C149.681 31.2556 150.188 30.6181 150.485 29.8771L146.262 30.0056L146.396 28.9567L153.665 28.7539Z" fill="#F37421"/>
</g>
</g>
</svg>
