<svg width="22" height="22" viewBox="0 0 22 22" fill="none" xmlns="http://www.w3.org/2000/svg">
<g clip-path="url(#clip0_306_297981)">
<rect width="21.3714" height="21.3714" rx="3.32443" fill="white"/>
<rect width="21.3714" height="21.3714" rx="3.32443" fill="url(#paint0_linear_306_297981)"/>
<path d="M15.2173 12.9017L13.7356 12.7325C13.5614 12.7121 13.3848 12.7314 13.2191 12.7889C13.0534 12.8465 12.9029 12.9409 12.7789 13.065L11.7056 14.1384C10.0496 13.2962 8.70365 11.9502 7.86145 10.2942L8.94061 9.21503C9.19145 8.96419 9.31395 8.61419 9.27311 8.25836L9.10395 6.78836C9.07087 6.5038 8.93431 6.24133 8.72025 6.05094C8.50619 5.86054 8.22959 5.75552 7.94311 5.75586H6.93395C6.27478 5.75586 5.72645 6.30419 5.76728 6.96336C6.07645 11.945 10.0606 15.9234 15.0364 16.2325C15.6956 16.2734 16.2439 15.725 16.2439 15.0659V14.0567C16.2498 13.4675 15.8064 12.9717 15.2173 12.9017Z" fill="#050E28"/>
<path d="M15.2173 12.9017L13.7356 12.7325C13.5614 12.7121 13.3848 12.7314 13.2191 12.7889C13.0534 12.8465 12.9029 12.9409 12.7789 13.065L11.7056 14.1384C10.0496 13.2962 8.70365 11.9502 7.86145 10.2942L8.94061 9.21503C9.19145 8.96419 9.31395 8.61419 9.27311 8.25836L9.10395 6.78836C9.07087 6.5038 8.93431 6.24133 8.72025 6.05094C8.50619 5.86054 8.22959 5.75552 7.94311 5.75586H6.93395C6.27478 5.75586 5.72645 6.30419 5.76728 6.96336C6.07645 11.945 10.0606 15.9234 15.0364 16.2325C15.6956 16.2734 16.2439 15.725 16.2439 15.0659V14.0567C16.2498 13.4675 15.8064 12.9717 15.2173 12.9017Z" fill="#1B1552"/>
</g>
<defs>
<linearGradient id="paint0_linear_306_297981" x1="23.2244" y1="21.3713" x2="-4.88104" y2="19.4997" gradientUnits="userSpaceOnUse">
<stop offset="0.0520833" stop-color="white" stop-opacity="0.9"/>
<stop offset="1" stop-color="#5BBBD9"/>
</linearGradient>
<clipPath id="clip0_306_297981">
<rect width="21.3714" height="21.3714" fill="white"/>
</clipPath>
</defs>
</svg>
