<svg width="22" height="22" viewBox="0 0 22 22" fill="none" xmlns="http://www.w3.org/2000/svg">
<g clip-path="url(#clip0_306_297976)">
<rect width="21.3714" height="21.3714" rx="3.32443" fill="white"/>
<rect width="21.3714" height="21.3714" rx="3.32443" fill="url(#paint0_linear_306_297976)"/>
<path d="M15.5938 6.1875H6.40625C6.00027 6.18793 5.61104 6.3494 5.32397 6.63647C5.0369 6.92354 4.87543 7.31277 4.875 7.71875V14.2812C4.87543 14.6872 5.0369 15.0765 5.32397 15.3635C5.61104 15.6506 6.00027 15.8121 6.40625 15.8125H15.5938C15.9997 15.8121 16.389 15.6506 16.676 15.3635C16.9631 15.0765 17.1246 14.6872 17.125 14.2812V7.71875C17.1246 7.31277 16.9631 6.92354 16.676 6.63647C16.389 6.3494 15.9997 6.18793 15.5938 6.1875ZM15.206 8.72035L11.2685 11.7829C11.1917 11.8425 11.0973 11.8749 11 11.8749C10.9027 11.8749 10.8083 11.8425 10.7315 11.7829L6.79398 8.72035C6.74772 8.68542 6.70886 8.64163 6.67967 8.59155C6.65047 8.54147 6.63152 8.48608 6.62392 8.42861C6.61632 8.37114 6.62021 8.31273 6.63537 8.25678C6.65054 8.20083 6.67667 8.14844 6.71225 8.10268C6.74784 8.05691 6.79216 8.01868 6.84265 7.99019C6.89314 7.9617 6.94879 7.94353 7.00636 7.93674C7.06393 7.92994 7.12228 7.93466 7.17801 7.95061C7.23375 7.96656 7.28576 7.99342 7.33102 8.02965L11 10.8832L14.669 8.02965C14.7607 7.96037 14.8761 7.92998 14.99 7.94506C15.104 7.96014 15.2075 8.01948 15.278 8.11024C15.3486 8.201 15.3806 8.31589 15.3671 8.43006C15.3536 8.54423 15.2958 8.64851 15.206 8.72035Z" fill="#050E28"/>
<path d="M15.5938 6.1875H6.40625C6.00027 6.18793 5.61104 6.3494 5.32397 6.63647C5.0369 6.92354 4.87543 7.31277 4.875 7.71875V14.2812C4.87543 14.6872 5.0369 15.0765 5.32397 15.3635C5.61104 15.6506 6.00027 15.8121 6.40625 15.8125H15.5938C15.9997 15.8121 16.389 15.6506 16.676 15.3635C16.9631 15.0765 17.1246 14.6872 17.125 14.2812V7.71875C17.1246 7.31277 16.9631 6.92354 16.676 6.63647C16.389 6.3494 15.9997 6.18793 15.5938 6.1875ZM15.206 8.72035L11.2685 11.7829C11.1917 11.8425 11.0973 11.8749 11 11.8749C10.9027 11.8749 10.8083 11.8425 10.7315 11.7829L6.79398 8.72035C6.74772 8.68542 6.70886 8.64163 6.67967 8.59155C6.65047 8.54147 6.63152 8.48608 6.62392 8.42861C6.61632 8.37114 6.62021 8.31273 6.63537 8.25678C6.65054 8.20083 6.67667 8.14844 6.71225 8.10268C6.74784 8.05691 6.79216 8.01868 6.84265 7.99019C6.89314 7.9617 6.94879 7.94353 7.00636 7.93674C7.06393 7.92994 7.12228 7.93466 7.17801 7.95061C7.23375 7.96656 7.28576 7.99342 7.33102 8.02965L11 10.8832L14.669 8.02965C14.7607 7.96037 14.8761 7.92998 14.99 7.94506C15.104 7.96014 15.2075 8.01948 15.278 8.11024C15.3486 8.201 15.3806 8.31589 15.3671 8.43006C15.3536 8.54423 15.2958 8.64851 15.206 8.72035Z" fill="#1B1552"/>
</g>
<defs>
<linearGradient id="paint0_linear_306_297976" x1="23.2244" y1="21.3713" x2="-4.88104" y2="19.4997" gradientUnits="userSpaceOnUse">
<stop offset="0.0520833" stop-color="white" stop-opacity="0.9"/>
<stop offset="1" stop-color="#5BBBD9"/>
</linearGradient>
<clipPath id="clip0_306_297976">
<rect width="21.3714" height="21.3714" fill="white"/>
</clipPath>
</defs>
</svg>
