<svg width="18" height="18" viewBox="0 0 18 18" fill="none" xmlns="http://www.w3.org/2000/svg">
<path d="M9.92521 0.0011073C10.5819 -0.00141277 11.2387 0.00518759 11.8952 0.0209064L12.0698 0.027206C12.2714 0.0344056 12.4703 0.0434051 12.7106 0.0542046C13.6681 0.0992023 14.3215 0.250395 14.8948 0.472683C15.4887 0.701272 15.9891 1.01086 16.4895 1.51123C16.947 1.96085 17.3011 2.50473 17.5271 3.10505C17.7494 3.67832 17.9006 4.33258 17.9456 5.29014C17.9564 5.52952 17.9654 5.72931 17.9726 5.9309L17.978 6.10549C17.994 6.76173 18.0009 7.41816 17.9987 8.07459L17.9996 8.74596V9.9249C18.0018 10.5816 17.9949 11.2384 17.9789 11.8949L17.9735 12.0695C17.9663 12.2711 17.9573 12.47 17.9465 12.7103C17.9015 13.6678 17.7485 14.3212 17.5271 14.8944C17.3018 15.4954 16.9476 16.0397 16.4895 16.4892C16.0395 16.9466 15.4953 17.3007 14.8948 17.5268C14.3215 17.7491 13.6681 17.9003 12.7106 17.9453C12.4703 17.9561 12.2714 17.9651 12.0698 17.9723L11.8952 17.9777C11.2387 17.9937 10.5819 18.0006 9.92521 17.9984L9.25384 17.9993H8.0758C7.41907 18.0015 6.76235 17.9946 6.10581 17.9786L5.93122 17.9732C5.71758 17.9654 5.50398 17.9564 5.29045 17.9462C4.3329 17.9012 3.67953 17.7482 3.10536 17.5268C2.50481 17.3012 1.96083 16.9471 1.51154 16.4892C1.05351 16.0394 0.699085 15.4952 0.472995 14.8944C0.250706 14.3212 0.0995141 13.6678 0.0545165 12.7103C0.0444936 12.4967 0.035494 12.2831 0.0275179 12.0695L0.0230182 11.8949C0.00642628 11.2384 -0.00107414 10.5816 0.000519274 9.9249V8.07459C-0.00199247 7.41817 0.0046079 6.76174 0.0203183 6.10549L0.026618 5.9309C0.0338176 5.72931 0.0428171 5.52952 0.0536166 5.29014C0.0986143 4.33169 0.249806 3.67922 0.472095 3.10505C0.698319 2.50444 1.05343 1.96071 1.51244 1.51213C1.96142 1.05383 2.50506 0.699087 3.10536 0.472683C3.67953 0.250395 4.332 0.0992023 5.29045 0.0542046L5.93122 0.027206L6.10581 0.0227063C6.76204 0.00612273 7.41847 -0.00137769 8.07491 0.00020741L9.92521 0.0011073ZM9.00006 4.50088C8.40384 4.49244 7.8119 4.60259 7.25863 4.82492C6.70535 5.04725 6.20178 5.37732 5.77718 5.79596C5.35258 6.2146 5.01542 6.71345 4.78529 7.26352C4.55516 7.8136 4.43665 8.40392 4.43665 9.0002C4.43665 9.59647 4.55516 10.1868 4.78529 10.7369C5.01542 11.2869 5.35258 11.7858 5.77718 12.2044C6.20178 12.6231 6.70535 12.9531 7.25863 13.1755C7.8119 13.3978 8.40384 13.5079 9.00006 13.4995C10.1935 13.4995 11.338 13.0254 12.1819 12.1816C13.0257 11.3377 13.4998 10.1932 13.4998 8.99975C13.4998 7.80633 13.0257 6.6618 12.1819 5.81793C11.338 4.97406 10.1935 4.50088 9.00006 4.50088ZM9.00006 6.30078C9.3587 6.29418 9.71506 6.3591 10.0483 6.49176C10.3816 6.62442 10.6851 6.82217 10.9411 7.07343C11.197 7.3247 11.4004 7.62447 11.5392 7.95521C11.6781 8.28595 11.7496 8.64104 11.7497 8.99974C11.7497 9.35844 11.6783 9.71355 11.5396 10.0443C11.4009 10.3751 11.1976 10.675 10.9417 10.9263C10.6858 11.1777 10.3824 11.3755 10.0492 11.5083C9.71594 11.6411 9.3596 11.7061 9.00096 11.6996C8.28491 11.6996 7.59819 11.4152 7.09187 10.9088C6.58555 10.4025 6.3011 9.71579 6.3011 8.99975C6.3011 8.2837 6.58555 7.59698 7.09187 7.09065C7.59819 6.58433 8.28491 6.29988 9.00096 6.29988L9.00006 6.30078ZM13.7248 3.15095C13.4345 3.16257 13.1599 3.28607 12.9586 3.4956C12.7573 3.70513 12.6449 3.98442 12.6449 4.27499C12.6449 4.56555 12.7573 4.84485 12.9586 5.05437C13.1599 5.2639 13.4345 5.38741 13.7248 5.39903C14.0232 5.39903 14.3093 5.28051 14.5203 5.06954C14.7312 4.85857 14.8498 4.57244 14.8498 4.27409C14.8498 3.97573 14.7312 3.6896 14.5203 3.47863C14.3093 3.26767 14.0232 3.14915 13.7248 3.14915V3.15095Z" fill="url(#paint0_linear_306_297962)"/>
<defs>
<linearGradient id="paint0_linear_306_297962" x1="19.5607" y1="17.9997" x2="-4.11105" y2="16.4233" gradientUnits="userSpaceOnUse">
<stop offset="0.0520833" stop-color="white" stop-opacity="0.9"/>
<stop offset="1" stop-color="#5BBBD9"/>
</linearGradient>
</defs>
</svg>
