<svg width="22" height="22" viewBox="0 0 22 22" fill="none" xmlns="http://www.w3.org/2000/svg">
<g clip-path="url(#clip0_306_297986)">
<rect width="21.3714" height="21.3714" rx="3.32443" fill="white"/>
<rect width="21.3714" height="21.3714" rx="3.32443" fill="url(#paint0_linear_306_297986)"/>
<path d="M11.0002 5.16675C8.42713 5.16675 6.33354 7.26033 6.33354 9.8305C6.31663 13.5901 10.8229 16.7074 11.0002 16.8334C11.0002 16.8334 15.6838 13.5901 15.6669 9.83341C15.6669 7.26033 13.5733 5.16675 11.0002 5.16675ZM11.0002 12.1667C9.71104 12.1667 8.66688 11.1226 8.66688 9.83341C8.66688 8.54425 9.71104 7.50008 11.0002 7.50008C12.2894 7.50008 13.3335 8.54425 13.3335 9.83341C13.3335 11.1226 12.2894 12.1667 11.0002 12.1667Z" fill="#050E28"/>
<path d="M11.0002 5.16675C8.42713 5.16675 6.33354 7.26033 6.33354 9.8305C6.31663 13.5901 10.8229 16.7074 11.0002 16.8334C11.0002 16.8334 15.6838 13.5901 15.6669 9.83341C15.6669 7.26033 13.5733 5.16675 11.0002 5.16675ZM11.0002 12.1667C9.71104 12.1667 8.66688 11.1226 8.66688 9.83341C8.66688 8.54425 9.71104 7.50008 11.0002 7.50008C12.2894 7.50008 13.3335 8.54425 13.3335 9.83341C13.3335 11.1226 12.2894 12.1667 11.0002 12.1667Z" fill="#1B1552"/>
</g>
<defs>
<linearGradient id="paint0_linear_306_297986" x1="23.2244" y1="21.3713" x2="-4.88104" y2="19.4997" gradientUnits="userSpaceOnUse">
<stop offset="0.0520833" stop-color="white" stop-opacity="0.9"/>
<stop offset="1" stop-color="#5BBBD9"/>
</linearGradient>
<clipPath id="clip0_306_297986">
<rect width="21.3714" height="21.3714" fill="white"/>
</clipPath>
</defs>
</svg>
