<svg width="21" height="17" viewBox="0 0 21 17" fill="none" xmlns="http://www.w3.org/2000/svg">
<path d="M20.384 1.96745C19.6209 2.30505 18.8116 2.52683 17.983 2.62545C18.8561 2.10259 19.5093 1.28019 19.821 0.31145C19.001 0.79945 18.102 1.14145 17.166 1.32645C16.5366 0.653029 15.7024 0.206413 14.793 0.0560348C13.8836 -0.0943437 12.9499 0.0599411 12.1373 0.494903C11.3246 0.929865 10.6784 1.62113 10.2991 2.46124C9.91984 3.30135 9.82875 4.24323 10.04 5.14045C8.37694 5.05724 6.74997 4.62518 5.26474 3.87231C3.77951 3.11945 2.46924 2.06262 1.419 0.77045C1.04729 1.4089 0.851955 2.13468 0.853 2.87345C0.853 4.32345 1.592 5.60445 2.713 6.35445C2.04901 6.33351 1.39965 6.15419 0.819 5.83145V5.88245C0.81897 6.84832 1.15303 7.78447 1.76453 8.53212C2.37603 9.27977 3.22731 9.79289 4.174 9.98445C3.55764 10.1517 2.91129 10.1763 2.284 10.0564C2.55092 10.8878 3.07121 11.6149 3.772 12.1358C4.47278 12.6568 5.31896 12.9455 6.192 12.9614C5.32436 13.6429 4.33089 14.1466 3.26841 14.4438C2.20593 14.741 1.09529 14.8258 0 14.6934C1.91172 15.9228 4.1371 16.5755 6.41 16.5734C14.104 16.5734 18.31 10.2005 18.31 4.67345C18.31 4.49345 18.306 4.31145 18.298 4.13245C19.1164 3.54081 19.8228 2.80701 20.384 1.96745Z" fill="url(#paint0_linear_306_297963)"/>
<defs>
<linearGradient id="paint0_linear_306_297963" x1="22.1514" y1="16.5734" x2="-4.59499" y2="14.3828" gradientUnits="userSpaceOnUse">
<stop offset="0.0520833" stop-color="white" stop-opacity="0.9"/>
<stop offset="1" stop-color="#5BBBD9"/>
</linearGradient>
</defs>
</svg>
