<svg width="18" height="13" viewBox="0 0 18 13" fill="none" xmlns="http://www.w3.org/2000/svg">
<path d="M9.05794 0H9.15807C10.0829 0.00337521 14.7688 0.0371275 16.0323 0.376899C16.4142 0.480595 16.7623 0.682718 17.0416 0.963069C17.321 1.24342 17.5219 1.59218 17.6242 1.9745C17.7379 2.40203 17.8177 2.96794 17.8717 3.55185L17.883 3.66885L17.9077 3.96137L17.9167 4.07838C17.9899 5.10669 17.9989 6.06975 18 6.28014V6.36452C17.9989 6.58279 17.9887 7.6111 17.9077 8.68217L17.8987 8.8003L17.8886 8.91731C17.8324 9.56085 17.7491 10.1999 17.6242 10.6702C17.5222 11.0526 17.3214 11.4016 17.042 11.682C16.7626 11.9624 16.4144 12.1644 16.0323 12.2678C14.7272 12.6188 9.76674 12.6435 9.07932 12.6447H8.91956C8.57191 12.6447 7.13407 12.6379 5.62648 12.5862L5.43521 12.5794L5.33733 12.5749L5.14495 12.567L4.95256 12.5592C3.70373 12.504 2.51453 12.4152 1.96662 12.2666C1.58465 12.1634 1.23653 11.9615 0.957125 11.6813C0.677724 11.4011 0.476857 11.0524 0.374648 10.6702C0.249766 10.201 0.16651 9.56085 0.110257 8.91731L0.101256 8.79917L0.0922558 8.68217C0.0367308 7.91982 0.00596272 7.15587 0 6.39152V6.25314C0.00225014 6.01125 0.0112507 5.17532 0.0720045 4.25277L0.07988 4.13688L0.0832552 4.07838L0.0922558 3.96137L0.117007 3.66885L0.128258 3.55185C0.182261 2.96794 0.262141 2.4009 0.375773 1.9745C0.47781 1.59203 0.6786 1.2431 0.958012 0.962703C1.23742 0.682303 1.58564 0.480284 1.96775 0.376899C2.51566 0.23064 3.70486 0.140634 4.95368 0.0843802L5.14495 0.0765047L5.33846 0.0697545L5.43521 0.0663793L5.6276 0.0585038C6.69834 0.0240481 7.76952 0.00491978 8.8408 0.00112512H9.05794V0ZM7.20045 3.61148V9.03207L11.8774 6.3229L7.20045 3.61148Z" fill="url(#paint0_linear_306_297964)"/>
<defs>
<linearGradient id="paint0_linear_306_297964" x1="19.5607" y1="12.6447" x2="-4.00426" y2="10.4107" gradientUnits="userSpaceOnUse">
<stop offset="0.0520833" stop-color="white" stop-opacity="0.9"/>
<stop offset="1" stop-color="#5BBBD9"/>
</linearGradient>
</defs>
</svg>
